<svg version="1.2" xmlns="http://www.w3.org/2000/svg" viewBox="0 0 419 420" width="419" height="420"><style>.a{fill:#34903f}.b{fill:#58be4b}.c{fill:#30b5c6}.d{fill:#2da4a4}.e{fill:#ffdc4b}.f{fill:#ffbe3e}.g{fill:#2c2e35}</style><path class="a" d="m209.4 284.1l20.6 66.8-20.6 68.5-20.7-68.5z"/><path class="b" d="m209.4 284.1l53.1 66.8h-32.5z"/><path class="b" d="m188.7 350.9h-32.4l53.1-66.8z"/><path class="b" d="m418.2 0l-181.9 101.7-2.7-25.5 31.8-24z"/><path class="c" d="m418.2-0.1l-68.3 119h-0.1l-113.5-17.2 181.9-101.7z"/><path class="a" d="m236.3 101.7l32.4 104.3-18.1 33.8z"/><path class="d" d="m349.8 118.9l-81.1 87.1-32.4-104.3z"/><path class="b" d="m153.4 52.2l31.7 24-2.7 25.5-181.8-101.7z"/><path class="c" d="m0.6 0l181.8 101.7-113.5 17.2-68.4-119z"/><path class="a" d="m168.1 239.8l-18.1-33.8 32.4-104.3z"/><path class="d" d="m182.4 101.7l-32.4 104.3-81.1-87.1z"/><path class="e" d="m193.5 63.7l-8.4 12.3 2.9-27.2 21.4-6.7 21.4 6.7 2.8 26.8-8.3-11.9-15.9-4.2z"/><path class="f" d="m250.6 239.8l-41.2-32-41.3 32 15.3-146.9h-0.1l1.8-16.9 8.4-12.3 15.9-4.2 15.9 4.2 8.3 11.9 1.8 17.3z"/><path class="c" d="m250.6 239.8l-41.2 77.5-41.3-77.5 41.3-32z"/><path class="g" d="m225.3 63.7l-15.9 30.9-15.9-30.9 15.9-4.2z"/></svg>