<?xml version="1.0" ?><!DOCTYPE svg  PUBLIC '-//W3C//DTD SVG 1.1//EN'  'http://www.w3.org/Graphics/SVG/1.1/DTD/svg11.dtd'><svg enable-background="new 0 0 512 512" height="512px" id="Privacy" version="1.1" viewBox="0 0 512 512" width="512px" xml:space="preserve" xmlns="http://www.w3.org/2000/svg" xmlns:xlink="http://www.w3.org/1999/xlink"><linearGradient gradientUnits="userSpaceOnUse" id="SVGID_1_" x1="135.103" x2="376.8968" y1="471" y2="229.2062"><stop offset="0" style="stop-color:#FF7BAC"/><stop offset="1" style="stop-color:#00FFFF"/></linearGradient><path d="M371.994,461.68H140.007c-18.966,0-34.34-15.375-34.34-34.34V272.867  c0-18.966,15.374-34.34,34.34-34.34h231.987c18.965,0,34.339,15.375,34.339,34.34V427.34  C406.333,446.305,390.959,461.68,371.994,461.68z" fill="url(#SVGID_1_)"/><path d="M377.521,224.297h-40v-53.116c0-44.587-36.274-80.861-80.86-80.861c-44.587,0-80.861,36.274-80.861,80.861  v53.116h-40v-53.116c0-66.643,54.218-120.861,120.861-120.861c66.643,0,120.86,54.218,120.86,120.861V224.297z" fill="#3F5EAB"/><path d="M291,327.844c0-19.33-15.67-35-35-35s-35,15.67-35,35c0,10.8,4.895,20.453,12.582,26.873l-11.732,41.986  h68.01l-11.677-41.788C286.007,348.496,291,338.754,291,327.844z" fill="#3F5EAB"/></svg>